<?xml version="1.0" encoding="UTF-8"?><svg id="Layer_3" xmlns="http://www.w3.org/2000/svg" viewBox="0 0 16.5 16.5"><defs><style>.cls-1{fill:#3597d3;}.cls-2{fill:none;stroke:#3597d3;stroke-linecap:round;stroke-linejoin:round;stroke-width:.75px;}</style></defs><path class="cls-2" d="M13.89,10.88V2.88h0c0-.9-2.53-1.62-5.64-1.62s-5.64.72-5.64,1.6h0v8.02"/><path class="cls-2" d="M6.05,4.34c-2.03-.24-3.45-.81-3.45-1.48,0-.89,2.53-1.6,5.64-1.6s5.64.72,5.64,1.6c0,.68-1.49,1.26-3.58,1.49"/><path class="cls-2" d="M5.52,5.98c-1.74-.27-2.92-.8-2.92-1.4"/><path class="cls-2" d="M5.52,7.74c-1.74-.27-2.92-.8-2.92-1.4"/><path class="cls-2" d="M10.98,5.98c1.74-.27,2.92-.8,2.92-1.4"/><path class="cls-2" d="M10.98,7.74c1.74-.27,2.92-.8,2.92-1.4"/><path class="cls-1" d="M4.78,12.14h1c.23,0,.4.02.51.05.16.05.29.13.41.25.11.12.2.26.26.44.06.17.09.39.09.64,0,.22-.03.42-.08.58-.07.2-.16.36-.29.48-.09.09-.22.16-.38.22-.12.04-.28.06-.48.06h-1.03v-2.7ZM5.33,12.59v1.79h.41c.15,0,.26,0,.33-.03.09-.02.16-.06.22-.11s.11-.14.14-.26c.04-.12.06-.29.06-.5s-.02-.37-.06-.48c-.04-.11-.09-.2-.16-.26s-.15-.11-.25-.13c-.08-.02-.23-.03-.45-.03h-.25Z"/><path class="cls-1" d="M7.37,13.96l.53-.05c.03.18.1.31.19.39.1.08.23.12.4.12.18,0,.31-.04.4-.11.09-.07.13-.16.13-.26,0-.06-.02-.12-.06-.16-.04-.04-.1-.08-.2-.12-.06-.02-.21-.06-.44-.12-.29-.07-.5-.16-.62-.27-.17-.15-.25-.33-.25-.54,0-.14.04-.27.12-.39.08-.12.19-.21.34-.27.15-.06.32-.09.53-.09.34,0,.59.07.77.22s.26.35.27.6l-.54.02c-.02-.14-.07-.24-.15-.3-.08-.06-.19-.09-.35-.09s-.28.03-.37.1c-.06.04-.09.1-.09.17,0,.06.03.12.08.16.07.06.24.12.5.18.27.06.46.13.59.2.13.07.23.16.3.27s.11.26.11.43c0,.16-.04.3-.13.44-.09.13-.21.24-.37.3-.16.07-.35.1-.59.1-.34,0-.6-.08-.79-.24-.18-.16-.29-.39-.33-.69Z"/><path class="cls-1" d="M10.05,14.84v-2.68h.55v2.23h1.36v.46h-1.9Z"/><path class="cls-1" d="M8.96,3.59c-.34-.41-.64-.82-.7-.91,0,0-.02,0-.02,0-.06.09-.36.5-.7.91-2.96,3.77.47,6.31.47,6.31l.03.02c.03.39.09.96.09.96h.26s.06-.56.09-.96l.03-.02s3.42-2.54.47-6.31h0ZM8.25,9.85s-.15-.13-.19-.2h0s.18-4.11.18-4.11c0-.01.02-.01.02,0l.18,4.11h0c-.04.07-.19.2-.19.2h0Z"/></svg>