<?xml version="1.0" encoding="UTF-8"?><svg id="Layer_3" xmlns="http://www.w3.org/2000/svg" viewBox="0 0 16.5 16.5"><defs><style>.cls-1{fill:none;stroke:#000;stroke-linecap:round;stroke-miterlimit:10;stroke-width:.75px;}</style></defs><path class="cls-1" d="M13.89,10.88V2.88h0c0-.9-2.53-1.62-5.64-1.62s-5.64.72-5.64,1.6h0v8.02"/><path class="cls-1" d="M6.05,4.34c-2.03-.24-3.45-.81-3.45-1.48,0-.89,2.53-1.6,5.64-1.6s5.64.72,5.64,1.6c0,.68-1.49,1.26-3.58,1.49"/><path d="M1.55,13.95l.35-.03c.02.12.06.2.13.26.06.05.15.08.26.08.11,0,.2-.02.26-.07.06-.05.09-.11.09-.17,0-.04-.01-.08-.04-.11-.02-.03-.07-.05-.13-.08-.04-.01-.14-.04-.29-.08-.19-.05-.33-.11-.4-.17-.11-.1-.16-.22-.16-.36,0-.09.03-.17.08-.25.05-.08.12-.14.22-.18.1-.04.21-.06.35-.06.22,0,.39.05.5.15.11.1.17.23.18.39l-.36.02c-.02-.09-.05-.16-.1-.2s-.13-.06-.23-.06-.18.02-.24.06c-.04.03-.06.06-.06.11,0,.04.02.08.05.11.04.04.15.08.33.12s.3.08.38.13.15.1.19.18c.05.08.07.17.07.28,0,.1-.03.2-.08.28-.06.09-.14.15-.24.2-.1.04-.23.06-.38.06-.22,0-.39-.05-.51-.15-.12-.1-.19-.25-.21-.45Z"/><path d="M3.68,14.52v-1.47h-.52v-.3h1.4v.3h-.52v1.47h-.36Z"/><path d="M6.2,14.52h-.39l-.15-.4h-.71l-.15.4h-.38l.69-1.76h.38l.71,1.76ZM5.54,13.83l-.24-.66-.24.66h.48Z"/><path d="M6.39,14.52v-1.76h.35l.72,1.18v-1.18h.33v1.76h-.36l-.71-1.15v1.15h-.33Z"/><path d="M8.17,12.76h.65c.15,0,.26.01.34.03.1.03.19.08.27.16.07.08.13.17.17.29.04.11.06.25.06.42,0,.14-.02.27-.05.38-.04.13-.11.23-.19.31-.06.06-.15.11-.25.14-.08.02-.18.04-.32.04h-.67v-1.76ZM8.52,13.06v1.17h.27c.1,0,.17,0,.22-.02.06-.01.11-.04.14-.07s.07-.09.09-.17c.02-.08.04-.19.04-.32s-.01-.24-.04-.31c-.02-.07-.06-.13-.1-.17-.04-.04-.1-.07-.17-.08-.05-.01-.15-.02-.29-.02h-.16Z"/><path d="M11.54,14.52h-.39l-.15-.4h-.71l-.15.4h-.38l.69-1.76h.38l.71,1.76ZM10.89,13.83l-.24-.66-.24.66h.48Z"/><path d="M11.73,14.52v-1.76h.75c.19,0,.33.02.41.05.09.03.15.09.21.17.05.08.08.17.08.28,0,.13-.04.24-.12.33-.08.09-.19.14-.35.16.08.04.14.09.19.15.05.05.12.15.2.29l.22.34h-.43l-.26-.38c-.09-.14-.15-.22-.19-.26-.03-.04-.07-.06-.11-.07-.04-.01-.1-.02-.18-.02h-.07v.74h-.36ZM12.09,13.51h.26c.17,0,.28,0,.32-.02.04-.01.08-.04.1-.08.02-.04.04-.08.04-.13,0-.06-.02-.11-.05-.14-.03-.04-.08-.06-.13-.07-.03,0-.12,0-.26,0h-.28v.45Z"/><path d="M13.51,12.76h.65c.15,0,.26.01.34.03.1.03.19.08.27.16.07.08.13.17.17.29.04.11.06.25.06.42,0,.14-.02.27-.05.38-.04.13-.11.23-.19.31-.06.06-.15.11-.25.14-.08.02-.18.04-.32.04h-.67v-1.76ZM13.87,13.06v1.17h.27c.1,0,.17,0,.22-.02.06-.01.11-.04.14-.07s.07-.09.09-.17c.02-.08.04-.19.04-.32s-.01-.24-.04-.31c-.02-.07-.06-.13-.1-.17-.04-.04-.1-.07-.17-.08-.05-.01-.15-.02-.29-.02h-.16Z"/><path d="M8.96,3.59c-.34-.41-.64-.82-.7-.91,0,0-.02,0-.02,0-.06.09-.36.5-.7.91-2.96,3.77.47,6.31.47,6.31l.03.02c.03.39.09.96.09.96h.26s.06-.56.09-.96l.03-.02s3.42-2.54.47-6.31h0ZM8.25,9.85s-.15-.13-.19-.2h0s.18-4.11.18-4.11c0-.01.02-.01.02,0l.18,4.11h0c-.04.07-.19.2-.19.2h0Z"/></svg>