<?xml version="1.0" encoding="UTF-8"?><svg id="Layer_3" xmlns="http://www.w3.org/2000/svg" viewBox="0 0 16.5 16.5"><defs><style>.cls-1{stroke-miterlimit:10;}.cls-1,.cls-2{fill:none;stroke:#000;stroke-linecap:round;stroke-width:.75px;}.cls-2{fill-rule:evenodd;stroke-linejoin:round;}</style></defs><path class="cls-1" d="M13.89,10.88V2.88h0c0-.9-2.53-1.62-5.64-1.62s-5.64.72-5.64,1.6h0v5.04"/><path class="cls-1" d="M12.7,3.85c.75-.27,1.19-.62,1.19-.99,0-.89-2.53-1.6-5.64-1.6s-5.64.72-5.64,1.6c0,.66,1.42,1.23,3.45,1.48,0,0,1.08.1,2.39.1"/><path d="M5.31,12.14h.55v1.46c0,.23,0,.38.02.45.02.11.08.2.17.27.09.07.21.1.36.1s.27-.03.35-.1c.08-.06.13-.14.14-.23.02-.09.02-.25.02-.46v-1.5h.55v1.42c0,.32-.01.55-.04.69-.03.13-.08.25-.16.34-.08.09-.19.17-.32.22s-.31.08-.52.08c-.26,0-.45-.03-.59-.09s-.24-.14-.32-.23c-.08-.1-.13-.2-.15-.3-.04-.16-.05-.38-.05-.69v-1.44Z"/><path d="M8.04,14.84v-2.7h1.15c.29,0,.5.02.63.07.13.05.24.14.31.26.08.12.12.27.12.43,0,.2-.06.37-.18.5-.12.13-.3.21-.53.25.12.07.21.14.29.23.08.08.18.23.31.44l.33.53h-.65l-.39-.59c-.14-.21-.24-.34-.29-.4s-.11-.09-.16-.11c-.06-.02-.15-.03-.28-.03h-.11v1.13h-.55ZM8.58,13.28h.4c.26,0,.42-.01.49-.03.07-.02.12-.06.15-.11.04-.05.06-.12.06-.2,0-.09-.02-.17-.07-.22s-.12-.09-.21-.11c-.04,0-.18,0-.4,0h-.43v.69Z"/><path d="M10.75,14.84v-2.7h.55v2.7h-.55Z"/><path d="M11.39,3.59c-.34-.41-.64-.82-.7-.91,0,0-.02,0-.02,0-.06.09-.36.5-.7.91-2.96,3.77.47,6.31.47,6.31l.03.02c.03.39.09.96.09.96h.26s.06-.56.09-.96l.03-.02s3.42-2.54.47-6.31h0ZM10.68,9.85s-.15-.13-.19-.2h0s.18-4.11.18-4.11c0-.01.02-.01.02,0l.18,4.11h0c-.04.07-.19.2-.19.2h0Z"/><path class="cls-2" d="M4.49,10.12l-1.29.94c-.41.3-.98.21-1.28-.2h0c-.3-.41-.21-.98.2-1.28l1.77-1.29c.41-.3.98-.21,1.28.2"/><path class="cls-2" d="M5.15,7.38l1.19-.87c.41-.3.98-.21,1.28.2h0c.3.41.21.98-.2,1.28l-1.77,1.29c-.41.3-.98.21-1.28-.2h0"/></svg>